# xmcd CD database file generated by OrangeCD 5.2
#
# Track frame offsets:
#	150
#	15305
#	28895
#	41965
#	54862
#	67400
#	78675
#	92705
#	107882
#	121515
#	134655
#	148937
#	173557
#	186970
#	200150
#	217125
#	228947
#	246492
#
# Disc length: 3473 seconds
#
# Revision: 19
# Processed by: cddbd v1.5.1PL2 Copyright (c) Steve Scherf et al.
# Submitted via: OrangeCD 5.2
#
DISCID=160d8f12
DTITLE=Various Artist - Blues Masters, Volume 1:  Urban Blues
DYEAR=1992
DGENRE=Blues
TTITLE0=Erskine Hawkins and His Orchestra - After Hours
TTITLE1=Eddie Vinson - Kidney Stew Blues
TTITLE2=Jimmy Witherspoon - Ain't Nobody's Business
TTITLE3=Dinah Washington - Baby, Get Lost
TTITLE4=Johnny Otis Quintette (With The Robins &Little Esther) - Double Crossin
TTITLE4=g Blues
TTITLE5=Pee Wee Crayton - Blues After Hours
TTITLE6=Charles Brown - Black Nite
TTITLE7=Joe Turner - Chains Of Love
TTITLE8=Guitar Slim - The Things That I Used To Do
TTITLE9=Chuck Willis - I Feel So Bad
TTITLE10=Lowell Fulson - Reconsider Baby
TTITLE11=Count Basie And His Orchestra (Vocal By Joe Williams) - Every Day
TTITLE12=Bobby "Blue" Bland - Farther Up The Road
TTITLE13=Otis Rush - I Can't Quit You Baby
TTITLE14=T-Bone Walker - T-Bone Blues
TTITLE15=Junior Parker - Driving Wheel
TTITLE16=Little Johnny Taylor - Part Time Love
TTITLE17=Albert King - Laundromat Blues
EXTD=ID3G: 0
EXTT0=Erskine Hawkins and His Orchestra\n
EXTT1=Eddy Vinson\n
EXTT2=Jimmy Witherspoon\n
EXTT3=Dinah Washington\n
EXTT4=Johnny Otis Quintette (with The Robins and \nLittle Esther\n
EXTT5=Pee Wee Crayton\n
EXTT6=Charles Brown\n
EXTT7=Joe Turner\n
EXTT8=Guitar Slim\n
EXTT9=Chuck Willis\n
EXTT10=Lowell Fulson\n
EXTT11=Count Basie and His Orchestra\n(Vocal By Joe Williams]\n
EXTT12=Bobby Blue Bland\n
EXTT13=Otis Rush\n
EXTT14=T-Bone Walker\n
EXTT15=Junior Parker\n
EXTT16=Little Johnny Taylor\n
EXTT17=Albert King\n
PLAYORDER=
